<?xml version="1.0" encoding="UTF-8"?>
<svg xmlns="http://www.w3.org/2000/svg" width="192" height="61" viewBox="0 0 192 61" fill="none">
  <g clip-path="url(#clip0_246_4)">
    <path d="M77.4798 53.4456C77.4798 53.7696 77.4339 54.0472 77.3357 54.2786C77.2374 54.51 77.1129 54.6952 76.9688 54.8208C76.8247 54.9464 76.6282 55.0522 76.3858 55.1249C76.1434 55.1977 75.9207 55.2439 75.7111 55.2638C75.5014 55.2836 75.246 55.2902 74.9446 55.2902C74.6433 55.2902 74.3485 55.2572 74.0668 55.1778C73.7786 55.1051 73.6017 54.9927 73.5231 54.8406V57.4588H72.5078V49.8753H73.51V50.4439H73.5231C73.6083 49.9943 74.224 49.7629 75.3835 49.7629C76.1107 49.7629 76.6478 49.9084 76.9819 50.2059C77.316 50.5034 77.4863 50.8538 77.4863 51.2638V53.4456H77.4798ZM76.4382 53.5646V51.6142C76.4382 51.1249 76.3268 50.8142 76.1107 50.6753C75.8945 50.5431 75.5014 50.4704 74.9446 50.4704C74.3878 50.4704 74.0079 50.5365 73.8114 50.6687C73.6148 50.801 73.51 51.1117 73.51 51.6076V53.558C73.51 54.001 73.6148 54.2919 73.8179 54.4175C74.0275 54.5431 74.4009 54.6092 74.9512 54.6092C75.5014 54.6092 75.8945 54.5431 76.1107 54.4175C76.3268 54.2919 76.4316 54.001 76.4316 53.558L76.4382 53.5646Z" fill="white"></path>
    <path d="M82.1635 50.6092H81.6002C81.1351 50.6092 80.7879 50.6687 80.5651 50.7877C80.3424 50.9067 80.2311 51.1249 80.2311 51.4423V55.1778H79.2157V49.8753H80.1787V50.7414C80.1787 50.4836 80.3424 50.2588 80.67 50.0605C80.9975 49.8621 81.3316 49.7629 81.6722 49.7629H82.1701V50.6092H82.1635Z" fill="white"></path>
    <path d="M88.1968 51.6605V53.5051C88.1968 53.8357 88.1575 54.1134 88.0723 54.3381C87.9872 54.5629 87.8824 54.7415 87.7579 54.8671C87.6269 54.9927 87.45 55.0853 87.2076 55.1514C86.9718 55.2175 86.7425 55.2572 86.5329 55.2704C86.3167 55.2836 86.0351 55.2902 85.6813 55.2902C85.2293 55.2902 84.8756 55.277 84.6266 55.2439C84.3712 55.2175 84.1222 55.1448 83.8733 55.0324C83.6178 54.92 83.441 54.7348 83.3296 54.4902C83.2182 54.239 83.1658 53.915 83.1658 53.5051V51.6605C83.1658 51.31 83.2117 51.0125 83.2968 50.7745C83.382 50.5299 83.4868 50.3448 83.6113 50.2125C83.7357 50.0803 83.9192 49.9811 84.1615 49.9084C84.4039 49.8423 84.6267 49.796 84.8363 49.7828C85.0459 49.7696 85.3276 49.7629 85.6879 49.7629C86.0482 49.7629 86.3364 49.7696 86.5395 49.7828C86.7491 49.796 86.9718 49.8423 87.2142 49.9084C87.4566 49.9811 87.64 50.0803 87.7645 50.2125C87.8889 50.3448 87.9937 50.5299 88.0789 50.7745C88.164 51.0125 88.2099 51.31 88.2099 51.6605H88.1968ZM87.1552 53.6439V51.4952C87.1552 51.0059 87.0504 50.7018 86.8473 50.5828C86.6443 50.4638 86.2512 50.4043 85.6748 50.4043C85.0983 50.4043 84.7053 50.4638 84.5022 50.5828C84.2991 50.7018 84.1943 51.0059 84.1943 51.4952V53.6439C84.1943 53.8753 84.2205 54.0605 84.2729 54.1993C84.3253 54.3381 84.4236 54.4373 84.5677 54.5034C84.7118 54.5695 84.8559 54.6026 85.0066 54.6158C85.1573 54.6291 85.38 54.6357 85.6748 54.6357C85.9696 54.6357 86.1923 54.6291 86.3429 54.6158C86.4936 54.6026 86.6377 54.5629 86.7818 54.5034C86.926 54.4439 87.0242 54.3381 87.0766 54.1993C87.129 54.0605 87.1552 53.8753 87.1552 53.6439Z" fill="white"></path>
    <path d="M94.7344 55.1777H93.7387V54.5496C93.7387 54.7414 93.5749 54.9067 93.2474 55.0587C92.9199 55.2108 92.4744 55.2835 91.911 55.2835C91.1184 55.2835 90.5616 55.1645 90.2406 54.9199C89.9196 54.6819 89.7559 54.2389 89.7559 53.5976V51.2637C89.7559 50.7281 89.9262 50.3447 90.2668 50.1133C90.6075 49.8819 91.1708 49.7628 91.97 49.7628C92.3958 49.7628 92.7954 49.8157 93.1622 49.9281C93.5291 50.0405 93.7125 50.2058 93.7191 50.4438H93.7387C93.7256 49.8422 93.7191 49.3992 93.7191 49.0951V47.5083H94.7344V55.1777ZM93.7191 53.7827V51.1645C93.7191 50.6885 93.2212 50.4505 92.2189 50.4505C91.6163 50.4505 91.2232 50.4967 91.0398 50.5827C90.8564 50.6686 90.7647 50.867 90.7647 51.1645V53.7827C90.7647 54.0802 90.8695 54.2918 91.0726 54.4174C91.2822 54.543 91.6294 54.6025 92.1272 54.6025C92.684 54.6025 93.0902 54.543 93.3391 54.4174C93.5946 54.2918 93.7191 54.0802 93.7191 53.7827Z" fill="white"></path>
    <path d="M101.292 55.1777H100.276V54.5298C100.172 55.0323 99.5754 55.2835 98.4814 55.2835C97.7609 55.2835 97.263 55.1579 96.9879 54.9066C96.7193 54.6554 96.5817 54.2719 96.5817 53.7628V49.8752H97.5971V53.71C97.5971 53.8422 97.6102 53.9546 97.6298 54.0405C97.6495 54.1265 97.7019 54.219 97.774 54.3116C97.846 54.4042 97.9639 54.4703 98.1342 54.5232C98.3046 54.5761 98.5142 54.5959 98.7697 54.5959C99.333 54.5959 99.7261 54.543 99.9423 54.4438C100.158 54.3381 100.27 54.1529 100.27 53.8819V49.8819H101.285V55.1843L101.292 55.1777Z" fill="white"></path>
    <path d="M107.187 55.1381C106.69 55.2373 106.107 55.2902 105.438 55.2902C105.104 55.2902 104.849 55.2902 104.665 55.277C104.482 55.2637 104.272 55.2307 104.03 55.1646C103.794 55.1051 103.611 55.0125 103.486 54.8935C103.362 54.7745 103.257 54.6092 103.165 54.3844C103.074 54.1596 103.028 53.8885 103.028 53.558V51.6075C103.028 51.3166 103.054 51.0654 103.113 50.8538C103.172 50.6423 103.257 50.4704 103.381 50.3381C103.499 50.2059 103.624 50.1001 103.755 50.0208C103.886 49.9414 104.056 49.8819 104.279 49.8489C104.502 49.8158 104.698 49.796 104.868 49.7828C105.039 49.7695 105.268 49.7695 105.55 49.7695C106.067 49.7695 106.591 49.8224 107.109 49.9348V50.6555C106.519 50.51 105.962 50.4373 105.425 50.4373C104.862 50.4373 104.495 50.5034 104.325 50.6356C104.154 50.7679 104.069 51.0456 104.069 51.4687V53.6373C104.069 54.0208 104.167 54.2786 104.357 54.4109C104.547 54.5365 104.94 54.6026 105.537 54.6026C106.074 54.6026 106.617 54.5365 107.187 54.3976V55.1447V55.1381Z" fill="white"></path>
    <path d="M113.149 52.7448H109.48V53.5448C109.48 53.915 109.618 54.1795 109.886 54.3382C110.155 54.4968 110.561 54.5762 111.092 54.5762C111.622 54.5762 112.225 54.4902 112.932 54.3117V55.0654C112.258 55.2109 111.596 55.2836 110.954 55.2836C109.284 55.2836 108.445 54.7415 108.445 53.6638V51.5679C108.445 50.92 108.635 50.4506 109.022 50.1729C109.408 49.8952 110.017 49.7563 110.862 49.7563C111.655 49.7563 112.231 49.8886 112.598 50.1597C112.965 50.4241 113.149 50.8935 113.149 51.5679V52.7382V52.7448ZM112.133 52.0968V51.2638C112.133 50.9398 112.035 50.7216 111.825 50.6026C111.622 50.4836 111.282 50.4241 110.81 50.4241C110.338 50.4241 110.024 50.4836 109.808 50.6026C109.592 50.7216 109.48 50.9398 109.48 51.2704V52.1035H112.133V52.0968Z" fill="white"></path>
    <path d="M119.588 55.1778H118.573V51.3431C118.573 51.2109 118.559 51.1051 118.54 51.0125C118.52 50.9266 118.468 50.834 118.396 50.7414C118.324 50.6489 118.206 50.5828 118.035 50.5365C117.865 50.4902 117.655 50.4638 117.4 50.4638C116.804 50.4638 116.404 50.5233 116.201 50.6489C115.998 50.7745 115.893 51.0059 115.893 51.3365V55.1712H114.878V49.8687H115.893V50.5167C115.998 50.0142 116.594 49.7629 117.688 49.7629C118.409 49.7629 118.907 49.8886 119.182 50.1398C119.45 50.391 119.588 50.7745 119.588 51.2836V55.1712V55.1778Z" fill="white"></path>
    <path d="M124.966 55.2042C124.606 55.2637 124.226 55.2902 123.826 55.2902C123.138 55.2902 122.66 55.1778 122.392 54.9464C122.123 54.715 121.986 54.2786 121.986 53.6373V50.5232H120.767V49.8753H121.986V48.229H123.014V49.8753H124.966V50.5232H123.014V53.6902C123.014 54.0736 123.086 54.3249 123.237 54.4505C123.387 54.5761 123.689 54.6422 124.154 54.6422C124.272 54.6422 124.547 54.6158 124.966 54.5563V55.2042Z" fill="white"></path>
    <path d="M133.803 55.1777H132.807V54.5496C132.807 54.7414 132.644 54.9067 132.316 55.0587C131.988 55.2108 131.543 55.2835 130.98 55.2835C130.187 55.2835 129.63 55.1645 129.309 54.9199C128.988 54.6819 128.824 54.2389 128.824 53.5976V51.2637C128.824 50.7281 128.995 50.3447 129.335 50.1133C129.676 49.8819 130.239 49.7628 131.039 49.7628C131.464 49.7628 131.864 49.8157 132.231 49.9281C132.598 50.0405 132.781 50.2058 132.788 50.4438H132.807C132.794 49.8422 132.788 49.3992 132.788 49.0951V47.5083H133.803V55.1777ZM132.788 53.7827V51.1645C132.788 50.6885 132.29 50.4505 131.288 50.4505C130.685 50.4505 130.292 50.4967 130.108 50.5827C129.925 50.6686 129.833 50.867 129.833 51.1645V53.7827C129.833 54.0802 129.938 54.2918 130.141 54.4174C130.351 54.543 130.698 54.6025 131.196 54.6025C131.753 54.6025 132.159 54.543 132.408 54.4174C132.663 54.2918 132.788 54.0802 132.788 53.7827Z" fill="white"></path>
    <path d="M138.605 50.6092H138.041C137.576 50.6092 137.229 50.6687 137.006 50.7877C136.784 50.9067 136.672 51.1249 136.672 51.4423V55.1778H135.657V49.8753H136.62V50.7414C136.62 50.4836 136.784 50.2588 137.111 50.0605C137.439 49.8621 137.773 49.7629 138.113 49.7629H138.611V50.6092H138.605Z" fill="white"></path>
    <path d="M143.662 55.1777H139.371V54.51L142.444 50.543H139.483V49.8752H143.59V50.543L140.518 54.51H143.655V55.1777H143.662Z" fill="white"></path>
    <path d="M153.036 49.8752L151.241 55.1777H150.036L148.713 50.8934L147.415 55.1777H146.21L144.369 49.8752H145.49L146.819 54.2389H146.885L148.175 49.8752H149.315L150.645 54.2389H150.711L151.994 49.8752H153.036Z" fill="white"></path>
    <path d="M155.25 48.9894H154.235V47.958H155.25V48.9894ZM155.25 55.1845H154.235V49.882H155.25V55.1845Z" fill="white"></path>
    <path d="M191.41 24.9298V26.7811C191.41 26.9926 191.351 27.1778 191.233 27.3232C191.115 27.4687 190.958 27.5811 190.755 27.6538C190.559 27.7265 190.362 27.7728 190.179 27.7993C189.989 27.8257 189.799 27.8389 189.596 27.8389C189.432 27.8389 189.275 27.8389 189.124 27.8191C188.973 27.8059 188.81 27.7728 188.633 27.7265C188.456 27.6802 188.305 27.6207 188.181 27.548C188.056 27.4753 187.945 27.3695 187.86 27.2373C187.775 27.105 187.729 26.953 187.729 26.7811V24.9364C187.729 24.705 187.794 24.5133 187.919 24.3546C188.043 24.196 188.214 24.0836 188.423 24.0108C188.633 23.9381 188.829 23.8852 189.013 23.8588C189.196 23.8323 189.393 23.8191 189.596 23.8191C189.753 23.8191 189.91 23.8257 190.054 23.8389C190.198 23.8521 190.362 23.8852 190.532 23.9315C190.703 23.9778 190.853 24.0439 190.978 24.1166C191.102 24.196 191.207 24.3017 191.286 24.4406C191.371 24.5794 191.41 24.7447 191.41 24.9298ZM190.939 26.7943V24.8836C190.939 24.7381 190.893 24.6125 190.808 24.5133C190.722 24.4075 190.605 24.3348 190.46 24.2885C190.316 24.2422 190.172 24.2092 190.035 24.1893C189.897 24.1695 189.753 24.1563 189.602 24.1563C189.452 24.1563 189.294 24.1695 189.15 24.1893C189.006 24.2092 188.855 24.2422 188.705 24.2885C188.554 24.3348 188.43 24.4075 188.338 24.5133C188.246 24.6125 188.2 24.7381 188.2 24.8836V26.7943C188.2 26.9265 188.246 27.0389 188.338 27.1315C188.43 27.224 188.554 27.2968 188.711 27.3431C188.869 27.3893 189.019 27.4224 189.163 27.4422C189.307 27.4621 189.458 27.4687 189.609 27.4687C189.746 27.4687 189.884 27.4621 190.015 27.4422C190.146 27.429 190.29 27.396 190.441 27.3563C190.591 27.3166 190.716 27.2439 190.808 27.1513C190.899 27.0588 190.945 26.9398 190.945 26.7943H190.939ZM190.585 26.9993H190.094L189.491 26.0604H189.209V26.9993H188.803V24.6588H189.622C189.923 24.6588 190.133 24.6918 190.257 24.7513C190.382 24.8108 190.441 24.9364 190.441 25.1216V25.5712C190.441 25.7166 190.388 25.829 190.29 25.9083C190.192 25.9877 190.061 26.0207 189.897 26.0207L190.585 26.9993ZM190.028 25.5381V25.1546C190.028 25.0687 190.002 25.0158 189.949 24.9893C189.897 24.9629 189.792 24.9497 189.642 24.9497H189.209V25.7761H189.609C189.779 25.7761 189.89 25.7629 189.943 25.7364C189.995 25.71 190.022 25.6439 190.022 25.5381H190.028Z" fill="white"></path>
    <path d="M32.3844 0.40749L3.8363 5.35295C3.8363 5.35295 3.8363 8.29509 3.8363 12.7513L5.44779 12.5529V9.51162L30.4913 6.0141V58.4505L5.44779 54.9529V51.7992L3.8363 51.5943C3.8363 54.5629 3.8363 56.4009 3.8363 56.4009C3.8363 56.4009 3.8363 56.4075 3.84285 56.4075L32.3779 60.4009C32.3779 60.4009 32.3844 60.4009 32.3844 60.3943V0.400879V0.40749Z" fill="white"></path>
    <path d="M21.8181 33.7628V53.9082L2.36895 51.4157V12.9297L21.8181 10.5694V30.5363H19.6564C19.093 30.5363 18.641 30.9925 18.641 31.5611V32.1099H24.0257V7.60742L0.410278 10.933V53.5975L24.0257 56.8636V33.7562H21.8247L21.8181 33.7628Z" fill="white"></path>
    <path d="M46.521 42.0207H42.073V23.3562H46.521V42.0207ZM59.5438 42.0207H54.1264L46.6323 32.1232L53.5564 23.3496H58.7708L51.7615 32.0372L59.5438 42.0207Z" fill="white"></path>
    <path d="M78.2658 42.0207H73.1366L68.2891 34.6884H66.2387V42.0207H61.7907V23.3562H70.1102C72.5405 23.3562 74.3157 23.6537 75.4359 24.2488C76.5561 24.8438 77.1194 25.862 77.1194 27.2967V30.576C77.1194 31.7066 76.7133 32.5793 75.9076 33.1942C75.1018 33.8091 74.0996 34.1926 72.9008 34.3446L78.2593 42.0273L78.2658 42.0207ZM72.7632 29.6835V28.3612C72.7632 27.6736 72.5601 27.1975 72.1474 26.9397C71.7413 26.6818 71.0404 26.5496 70.0512 26.5496H66.2321V31.7264H70.0512C71.0928 31.7264 71.8068 31.5876 72.1867 31.3099C72.5667 31.0322 72.7567 30.4901 72.7567 29.6835H72.7632Z" fill="white"></path>
    <path d="M97.5316 42.0802C95.8808 42.4438 94.1514 42.6289 92.3434 42.6289C87.1552 42.6289 84.5611 40.943 84.5611 37.5645V28.705C84.5611 25.1413 87.1552 23.3562 92.3434 23.3562C94.0728 23.3562 95.7629 23.5413 97.4136 23.905V25.9744C95.5925 25.5116 93.9156 25.2868 92.3958 25.2868C91.6752 25.2868 91.0398 25.3331 90.4895 25.419C89.9392 25.505 89.3955 25.657 88.8649 25.8818C88.3343 26.1 87.9216 26.4504 87.6399 26.9198C87.3583 27.3893 87.2141 27.9777 87.2141 28.6917V37.4322C87.2141 39.581 88.9828 40.6521 92.5137 40.6521C94.0335 40.6521 95.7039 40.4207 97.5316 39.9645V42.0934V42.0802Z" fill="white"></path>
    <path d="M113.922 42.338H101.213V23.6736H113.64V25.6306H103.978V31.7265H112.697V33.6835H103.978V40.3876H113.922V42.3447V42.338Z" fill="white"></path>
    <path d="M133.554 42.338H130.22L120.158 26.662V42.338H117.734V23.6736H121.068L131.13 39.0918V23.6736H133.554V42.338Z" fill="white"></path>
    <path d="M151.935 25.6306H145.693V42.3447H142.902V25.6306H136.633V23.6736H151.935V25.6306Z" fill="white"></path>
    <path d="M167.723 42.338H155.014V23.6736H167.441V25.6306H157.779V31.7265H166.498V33.6835H157.779V40.3876H167.723V42.3447V42.338Z" fill="white"></path>
    <path d="M185.678 42.338H182.285L176.986 34.5761H174.306V42.338H171.542V23.6736H178.04C180.359 23.6736 182.023 23.9116 183.025 24.381C184.034 24.8504 184.539 25.8356 184.539 27.3298V30.7546C184.539 31.905 184.073 32.7711 183.143 33.3595C182.213 33.9414 181.08 34.2389 179.75 34.2389L185.678 42.3447V42.338ZM181.774 30.4042V27.6075C181.774 26.2058 180.575 25.505 178.184 25.505H174.306V32.7314H177.922C179.232 32.7314 180.202 32.5661 180.831 32.2422C181.46 31.9182 181.774 31.3033 181.774 30.4042Z" fill="white"></path>
  </g>
  <defs>
    <clipPath id="clip0_246_4">
      <rect width="191" height="60" fill="white" transform="translate(0.410278 0.407471)"></rect>
    </clipPath>
  </defs>
</svg>
